PathFileType	4	(X/Y/Z)	c:/Users/goper/Files/vsCode/490R/osim_files/A03/A03_SSWS_04.trc
DataRate	CameraRate	NumFrames	NumMarkers	Units                	OrigDataRate	OrigDataStartFrame	OrigNumFrames
250.00	250.00	6	36	mm	250.0	1032	2750
                Frame#	Time	LPSIS			LASIS			LTH1			LTH2			LTH3			LTH4			LLFE			LMFE			LSH1			LSH2			LSH3			LSH4			LLMAL			LMMAL			LCAL			LMTP5			LTOE			LMTP1			RPSIS			RASIS			RTH1			RTH2			RTH3			RTH4			RLFE			RMFE			RSH1			RSH2			RSH3			RSH4			RLMAL			RMMAL			RCAL			RMTP1			RTOE			RMTP5		
		X1	Y1	Z1	X2	Y2	Z2	X3	Y3	Z3	X4	Y4	Z4	X5	Y5	Z5	X6	Y6	Z6	X7	Y7	Z7	X8	Y8	Z8	X9	Y9	Z9	X10	Y10	Z10	X11	Y11	Z11	X12	Y12	Z12	X13	Y13	Z13	X14	Y14	Z14	X15	Y15	Z15	X16	Y16	Z16	X17	Y17	Z17	X18	Y18	Z18	X19	Y19	Z19	X20	Y20	Z20	X21	Y21	Z21	X22	Y22	Z22	X23	Y23	Z23	X24	Y24	Z24	X25	Y25	Z25	X26	Y26	Z26	X27	Y27	Z27	X28	Y28	Z28	X29	Y29	Z29	X30	Y30	Z30	X31	Y31	Z31	X32	Y32	Z32	X33	Y33	Z33	X34	Y34	Z34	X35	Y35	Z35	X36	Y36	Z36

1032	4.12400	999.73279	1077.15698	323.45508	770.11975	988.66772	458.70145	833.79291	635.87799	477.97989	824.81165	594.03906	475.54944	775.68188	643.79602	464.01126	775.73694	599.81262	460.89722	834.16083	547.31213	464.63016	806.70892	545.76715	310.64825	885.64124	464.95261	457.60825	888.52258	416.87234	454.00854	824.41693	454.09998	454.03400	837.71399	408.95541	446.42273	916.83472	97.20989	402.94226	905.22791	105.89574	307.21179	983.98962	83.65873	347.26303	767.80048	39.64319	417.92462	735.36053	70.75660	349.02625	764.75085	50.73885	303.82001	993.15295	1080.29297	241.03490	742.67999	1006.79517	164.81322	693.92877	659.77222	81.91412	681.39020	621.71057	83.63562	635.16333	673.60553	90.53404	630.93042	630.97638	93.64414	657.37561	591.31262	99.60989	629.52100	588.82959	226.27510	725.33557	547.08716	91.66128	742.05164	509.87927	78.54697	670.60364	513.50177	96.29394	697.53503	476.82632	83.75200	879.59143	228.60951	118.36132	854.74786	204.61909	205.32300	948.72943	221.84048	169.30092	789.82745	83.16027	225.07309	750.25549	88.22206	176.15288	795.01099	71.66676	107.07182
1033	4.12800	995.23059	1076.88660	323.57980	766.00781	988.40186	459.04807	831.07532	635.77020	478.24484	822.26941	593.81653	475.78906	772.85803	643.34717	464.29922	773.10254	599.30170	461.15378	831.84460	547.04846	464.84360	804.38635	545.39264	310.87442	883.71582	464.95828	457.79053	886.82312	416.86789	454.17773	822.53033	453.81128	454.23978	835.32410	408.57837	445.93274	916.70795	97.29424	402.94617	905.07880	105.97076	307.22446	983.92987	83.81436	347.27472	767.74200	39.57445	417.91461	735.25159	70.59788	348.96890	765.10718	50.56310	303.78326	988.55188	1079.91907	241.17009	738.49371	1006.80585	165.27852	687.90808	659.90741	82.88741	675.06274	621.80695	84.72578	629.45422	674.24329	91.87067	624.68146	631.48322	94.84352	650.80585	591.63239	100.83184	623.31989	589.48309	227.26529	718.11908	546.12128	92.42025	734.03644	508.57614	79.29078	662.82758	513.58081	97.33851	688.98462	476.36435	84.74235	866.16974	224.55998	118.80512	841.05817	201.13327	205.76286	935.76080	216.46631	169.58102	773.03857	81.19196	226.00186	734.88416	87.52887	177.24289	778.16669	69.57671	108.07613
1034	4.13200	990.79669	1076.58032	323.71057	761.71387	988.20978	459.46606	828.32416	635.63934	478.48376	819.41406	593.42230	475.95673	770.04486	642.80872	464.57785	770.54169	598.81104	461.42917	829.59015	546.78931	465.06985	801.24860	544.15308	311.59094	881.80603	464.93304	457.98727	885.12537	416.88458	454.33856	820.67053	453.52533	454.43478	833.71118	408.34570	446.13342	916.60535	97.38415	402.96960	904.92432	105.99974	307.21207	983.81360	83.95981	347.29556	767.43787	39.18255	417.81995	735.18744	70.51962	348.93234	765.04529	50.45876	303.75095	983.99139	1079.51050	241.29895	733.52185	1006.74579	165.77568	681.93683	659.89240	83.98325	668.84448	621.98651	85.91319	623.34802	674.49628	92.80418	618.54272	631.90009	96.07587	644.31433	591.91846	101.99557	617.05505	590.08130	228.35745	710.98773	545.08350	93.20820	726.11981	507.25427	80.04727	655.10437	513.61163	98.42963	680.46539	475.80307	85.79189	852.68713	220.50903	119.29504	827.43054	197.78316	206.36388	921.92041	210.95866	170.09050	756.94238	79.73379	227.08372	718.60638	86.41578	178.10538	761.19135	67.49216	109.01383
1035	4.13600	986.32410	1076.26685	323.82050	757.49854	987.87823	459.84720	825.56439	635.48309	478.73819	816.83197	593.16803	476.16260	767.20978	642.32068	464.83521	767.97186	598.05652	461.81519	827.62689	546.72345	465.36499	798.77869	543.62750	311.54959	879.89764	464.92398	458.14929	883.39301	416.88486	454.48953	818.79901	453.21756	454.62390	832.39886	408.03574	446.82764	916.49500	97.44118	402.98245	902.69623	104.33749	306.55121	984.08478	84.36511	347.27219	767.68915	39.43743	417.87375	734.77728	70.13440	348.65353	764.96686	50.37755	303.74258	979.41229	1079.08521	241.44926	729.96008	1006.72144	166.75420	676.16107	659.92090	84.97041	662.79736	622.03516	87.10894	617.75006	674.93488	94.19071	612.46716	632.23505	97.30769	638.00500	592.08289	103.24476	610.93866	590.62292	229.36945	703.90698	543.95752	93.99622	718.75964	506.10953	80.66564	647.44574	513.56219	99.54218	672.09875	475.31531	86.73945	839.08502	216.44981	119.79527	813.62708	194.32118	206.96167	909.96857	206.07590	170.66496	740.15387	77.96957	227.97462	702.11359	85.66540	179.22952	744.14484	65.57735	110.00999
1036	4.14000	981.79169	1075.85583	323.98352	753.19928	987.52594	460.14282	822.65570	635.20959	478.92627	814.29175	592.92664	476.37790	764.35803	641.79108	465.04565	765.33856	597.77722	461.88547	824.96838	546.22131	465.48923	795.98743	542.90027	312.46951	877.97345	464.88687	458.34100	881.70959	416.86060	454.64929	816.93286	452.87903	454.77036	830.71863	407.75327	446.95633	916.37543	97.52253	403.03503	901.52527	104.20365	306.62927	983.95013	84.51927	347.25983	767.60950	39.33596	417.84863	736.70386	70.81585	350.07239	764.85632	50.27774	303.74066	974.78363	1078.60645	241.60651	723.99286	1006.47577	166.67868	670.40521	659.83685	86.02199	656.79773	621.89545	88.33212	612.04230	675.15704	95.37638	606.53271	632.50531	98.55157	631.69550	592.32275	104.42182	604.89307	591.11157	230.51428	696.88458	542.77405	94.83162	710.96777	504.61285	81.46552	639.88483	513.46741	100.63519	663.62781	474.65546	87.88083	825.36096	212.39154	120.38473	799.57861	190.83522	207.53760	894.68555	199.02849	170.64806	723.24359	76.41261	229.22815	685.49188	84.96185	180.34550	726.95587	63.76419	111.03482
1037	4.14400	977.27856	1075.46057	324.12198	748.77045	987.16681	460.44272	819.84711	635.00555	479.14105	811.97620	592.84485	476.64584	761.48590	641.23486	465.27365	762.69452	597.24573	462.10818	822.69049	545.93591	465.69385	793.82166	543.30457	312.73297	876.04205	464.83032	458.50845	880.33612	416.79706	454.80228	815.04022	452.53256	454.91959	829.03619	407.50598	447.10211	916.23883	97.57178	403.06140	901.41943	104.28278	306.62848	983.82605	84.65144	347.30560	767.56750	39.24092	417.86859	736.58801	70.66714	350.07028	764.73608	50.14454	303.73477	971.19916	1078.41138	241.69890	718.24365	1006.32343	167.04832	664.71606	659.62073	87.16523	650.81342	621.83807	89.60352	606.32074	675.20282	96.25735	600.70557	632.68060	99.80199	625.55420	590.05133	108.22705	598.86871	591.46832	231.58736	689.95300	541.48389	95.69990	703.14465	503.06015	82.33128	632.37140	513.30078	101.79317	655.38397	474.08319	88.89399	811.52838	208.38495	120.96471	784.33435	186.48993	207.93332	880.70618	193.32899	171.09596	706.45172	75.00922	230.29987	669.91302	83.88615	180.86003	709.88428	62.01830	111.98797
